<svg width="29" height="18" viewBox="0 0 29 18" fill="none" xmlns="http://www.w3.org/2000/svg">
<path d="M6.24615 1.7284L1.02449 8.06739C0.42647 8.79338 0.415127 9.83798 0.997247 10.5768L6.24559 17.2378C6.62482 17.7191 7.20377 18 7.81654 18H26C27.1046 18 28 17.1046 28 16V3C28 1.89543 27.1046 1 26 1H7.78985C7.19231 1 6.62607 1.26718 6.24615 1.7284Z" fill="#6A6F7C"/>
<path d="M11.0034 15L14.6834 9.7L11.0034 4.4H12.9034L16.0234 8.8L19.1434 4.4H21.0434L17.3834 9.7L21.0434 15H19.1434L16.0234 10.58L12.9034 15H11.0034Z" fill="#F1F2F5"/>
</svg>
